<svg width="92" height="64" viewBox="0 0 92 64" fill="none" xmlns="http://www.w3.org/2000/svg">
<path fill-rule="evenodd" clip-rule="evenodd" d="M38.05 6.98001C40.998 3.90901 45.105 2.00201 49.645 2.00201C55.68 2.00201 60.947 5.36801 63.751 10.365C66.2599 9.24434 68.9773 8.66671 71.725 8.67001C82.611 8.67001 91.435 17.572 91.435 28.555C91.435 39.538 82.611 48.44 71.725 48.44C70.394 48.44 69.096 48.307 67.841 48.054C65.372 52.457 60.664 55.433 55.263 55.433C53.002 55.433 50.863 54.913 48.96 53.982C46.456 59.872 40.623 64 33.826 64C26.748 64 20.714 59.52 18.399 53.239C17.3676 53.4567 16.3162 53.5663 15.262 53.566C6.83304 53.567 4.23908e-05 46.663 4.23908e-05 38.146C-0.00628116 35.4469 0.694977 32.7933 2.03391 30.4496C3.37284 28.106 5.30268 26.1543 7.63104 24.789C6.66509 22.5633 6.16809 20.1623 6.17104 17.736C6.17104 7.94001 14.122 1.20693e-05 23.93 1.20693e-05C26.6623 -0.00317572 29.3584 0.625153 31.8077 1.83595C34.257 3.04674 36.3934 4.80724 38.05 6.98001Z" fill="#00A1E0"/>
<path fill-rule="evenodd" clip-rule="evenodd" d="M13.244 33.1899L13.614 32.1629C13.673 31.9869 13.806 32.0449 13.86 32.0779C13.963 32.1389 14.037 32.1939 14.17 32.2719C15.26 32.9609 16.27 32.9679 16.585 32.9679C17.401 32.9679 17.907 32.5359 17.907 31.9529V31.9229C17.907 31.2889 17.127 31.0489 16.226 30.7729L16.026 30.7089C14.789 30.3569 13.466 29.8479 13.466 28.2819V28.2499C13.466 26.7639 14.665 25.7269 16.381 25.7269L16.569 25.7249C17.577 25.7249 18.551 26.0179 19.257 26.4459C19.321 26.4859 19.383 26.5599 19.347 26.6579L18.967 27.6849C18.9 27.8599 18.717 27.7439 18.717 27.7439C17.9804 27.3601 17.1654 27.1511 16.335 27.1329C15.607 27.1329 15.139 27.5189 15.139 28.0429V28.0759C15.139 28.6869 15.941 28.9479 16.871 29.2509L17.031 29.3009C18.264 29.6909 19.58 30.2309 19.58 31.7159V31.7469C19.58 33.3519 18.414 34.3489 16.539 34.3489C15.618 34.3489 14.737 34.2069 13.805 33.7119C13.629 33.6099 13.455 33.5219 13.283 33.3969C13.265 33.3709 13.186 33.3399 13.243 33.1899H13.244ZM40.701 33.1899L41.072 32.1629C41.126 31.9949 41.283 32.0569 41.317 32.0779C41.419 32.1409 41.495 32.1939 41.627 32.2719C42.719 32.9609 43.727 32.9679 44.045 32.9679C44.858 32.9679 45.365 32.5359 45.365 31.9529V31.9229C45.365 31.2889 44.586 31.0489 43.685 30.7729L43.485 30.7089C42.246 30.3569 40.923 29.8479 40.923 28.2819V28.2499C40.923 26.7639 42.123 25.7269 43.839 25.7269L44.026 25.7249C45.034 25.7249 46.009 26.0179 46.716 26.4459C46.778 26.4859 46.841 26.5599 46.806 26.6579C46.771 26.7489 46.459 27.5889 46.426 27.6849C46.357 27.8599 46.176 27.7439 46.176 27.7439C45.4391 27.36 44.6237 27.1509 43.793 27.1329C43.065 27.1329 42.597 27.5189 42.597 28.0429V28.0759C42.597 28.6869 43.398 28.9479 44.329 29.2509L44.489 29.3009C45.722 29.6909 47.037 30.2309 47.037 31.7159V31.7469C47.037 33.3519 45.872 34.3489 43.997 34.3489C43.075 34.3489 42.194 34.2069 41.263 33.7119C41.087 33.6099 40.913 33.5219 40.74 33.3969C40.722 33.3709 40.643 33.3399 40.701 33.1899ZM61.011 28.3609C61.165 28.8769 61.241 29.4439 61.241 30.0429C61.241 30.6429 61.165 31.2079 61.011 31.7239C60.8702 32.2215 60.6285 32.6848 60.301 33.0849C59.9729 33.4736 59.5613 33.7833 59.097 33.9909C58.617 34.2109 58.053 34.3209 57.419 34.3209C56.785 34.3209 56.219 34.2109 55.741 33.9909C55.2767 33.7833 54.8651 33.4736 54.537 33.0849C54.2098 32.6848 53.9679 32.222 53.826 31.7249C53.6688 31.1783 53.5913 30.6118 53.596 30.0429C53.596 29.4429 53.673 28.8769 53.826 28.3609C53.98 27.8409 54.219 27.3829 54.536 27.0009C54.8649 26.6107 55.2765 26.2985 55.741 26.0869C56.22 25.8629 56.783 25.7499 57.419 25.7499C58.055 25.7499 58.618 25.8629 59.097 26.0869C59.575 26.3099 59.981 26.6169 60.301 27.0009C60.619 27.3829 60.859 27.8409 61.011 28.3609ZM59.447 30.0429C59.447 29.1359 59.279 28.4229 58.945 27.9229C58.615 27.4269 58.115 27.1869 57.419 27.1869C56.723 27.1869 56.227 27.4269 55.901 27.9229C55.574 28.4229 55.407 29.1359 55.407 30.0429C55.407 30.9489 55.574 31.6669 55.903 32.1709C56.227 32.6729 56.723 32.9159 57.419 32.9159C58.115 32.9159 58.615 32.6719 58.945 32.1709C59.277 31.6669 59.447 30.9489 59.447 30.0429ZM73.869 32.6729L74.253 33.7349C74.303 33.8649 74.19 33.9219 74.19 33.9219C73.597 34.1519 72.774 34.3159 71.973 34.3159C70.615 34.3159 69.575 33.9249 68.881 33.1529C68.191 32.3829 67.839 31.3359 67.839 30.0369C67.839 29.4359 67.926 28.8669 68.096 28.3519C68.266 27.8319 68.521 27.3739 68.857 26.9919C69.2059 26.5992 69.6362 26.2873 70.118 26.0779C70.618 25.8549 71.206 25.7429 71.862 25.7429C72.305 25.7429 72.699 25.7699 73.037 25.8199C73.398 25.8759 73.879 26.0059 74.082 26.0849C74.119 26.0989 74.222 26.1489 74.18 26.2699C74.032 26.6869 73.931 26.9589 73.794 27.3389C73.734 27.5009 73.612 27.4469 73.612 27.4469C73.097 27.2849 72.603 27.2109 71.958 27.2109C71.183 27.2109 70.601 27.4689 70.221 27.9739C69.837 28.4829 69.622 29.1499 69.619 30.0369C69.616 31.0099 69.86 31.7309 70.292 32.1769C70.723 32.6219 71.325 32.8469 72.083 32.8469C72.39 32.8469 72.68 32.8269 72.941 32.7859C73.199 32.7449 73.441 32.6649 73.669 32.5759C73.669 32.5759 73.816 32.5209 73.869 32.6729ZM81.879 28.0659C82.22 29.2599 82.042 30.2909 82.036 30.3479C82.023 30.4839 81.883 30.4859 81.883 30.4859L76.584 30.4819C76.617 31.2869 76.81 31.8569 77.2 32.2439C77.583 32.6229 78.191 32.8659 79.014 32.8669C80.272 32.8699 80.809 32.6169 81.19 32.4759C81.19 32.4759 81.335 32.4239 81.39 32.5679L81.735 33.5389C81.805 33.7019 81.749 33.7589 81.69 33.7919C81.358 33.9749 80.553 34.3169 79.021 34.3209C78.278 34.3239 77.631 34.2179 77.098 34.0109C76.5915 33.8233 76.1353 33.5211 75.765 33.1279C75.4111 32.7422 75.1483 32.2818 74.996 31.7809C74.832 31.2321 74.7514 30.6617 74.757 30.0889C74.757 29.4889 74.834 28.9189 74.989 28.3979C75.144 27.8729 75.385 27.4099 75.706 27.0209C76.0387 26.6239 76.4558 26.3062 76.927 26.0909C77.413 25.8619 78.015 25.7499 78.677 25.7499C79.244 25.7499 79.762 25.8719 80.193 26.0579C80.525 26.1999 80.859 26.4569 81.201 26.8249C81.417 27.0569 81.746 27.5649 81.879 28.0659ZM76.609 29.1729H80.389C80.35 28.6869 80.255 28.2509 80.037 27.9229C79.705 27.4269 79.247 27.1539 78.552 27.1539C77.856 27.1539 77.362 27.4269 77.035 27.9229C76.821 28.2509 76.684 28.6689 76.609 29.1729ZM39.434 28.0659C39.774 29.2599 39.599 30.2909 39.593 30.3479C39.579 30.4839 39.439 30.4859 39.439 30.4859L34.139 30.4819C34.173 31.2869 34.365 31.8569 34.756 32.2439C35.139 32.6229 35.746 32.8659 36.569 32.8669C37.827 32.8699 38.366 32.6169 38.746 32.4759C38.746 32.4759 38.891 32.4239 38.945 32.5679L39.291 33.5389C39.361 33.7019 39.305 33.7589 39.247 33.7919C38.913 33.9749 38.107 34.3169 36.577 34.3209C35.833 34.3239 35.186 34.2179 34.654 34.0109C34.1474 33.8231 33.6909 33.5209 33.32 33.1279C32.967 32.7418 32.705 32.2815 32.553 31.7809C32.3878 31.2323 32.3065 30.6619 32.312 30.0889C32.312 29.4889 32.39 28.9189 32.544 28.3979C32.6881 27.8953 32.9323 27.4269 33.262 27.0209C33.5946 26.6243 34.0114 26.3066 34.482 26.0909C34.97 25.8619 35.572 25.7499 36.232 25.7499C36.7536 25.7487 37.2701 25.8535 37.75 26.0579C38.082 26.1999 38.416 26.4569 38.757 26.8249C38.973 27.0569 39.302 27.5649 39.434 28.0659ZM34.163 29.1729H37.945C37.905 28.6869 37.81 28.2509 37.593 27.9229C37.263 27.4269 36.803 27.1539 36.108 27.1539C35.412 27.1539 34.917 27.4269 34.592 27.9229C34.376 28.2509 34.24 28.6689 34.163 29.1729ZM24.817 28.9199C24.817 28.9199 25.235 28.9569 25.691 29.0229V28.7989C25.691 28.0919 25.544 27.7589 25.255 27.5359C24.959 27.3099 24.517 27.1929 23.945 27.1929C23.945 27.1929 22.655 27.1769 21.635 27.7309C21.588 27.7589 21.549 27.7749 21.549 27.7749C21.549 27.7749 21.421 27.8199 21.375 27.6889L21 26.6809C20.942 26.5359 21.047 26.4699 21.047 26.4699C21.524 26.0979 22.68 25.8729 22.68 25.8729C23.1493 25.7905 23.6245 25.7467 24.101 25.7419C25.159 25.7419 25.978 25.9879 26.535 26.4749C27.093 26.9639 27.377 27.7519 27.377 28.8139L27.38 33.6619C27.38 33.6619 27.391 33.8019 27.258 33.8339C27.258 33.8339 27.063 33.8879 26.888 33.9289C26.711 33.9699 26.073 34.0999 25.552 34.1879C25.02 34.2771 24.4814 34.3219 23.942 34.3219C23.427 34.3219 22.955 34.2739 22.539 34.1789C22.1513 34.0977 21.7842 33.9385 21.46 33.7109C21.1645 33.4964 20.9274 33.2114 20.77 32.8819C20.607 32.5489 20.525 32.1419 20.525 31.6719C20.525 31.2109 20.622 30.7999 20.809 30.4499C20.997 30.1019 21.255 29.8069 21.579 29.5759C21.9137 29.3403 22.288 29.1665 22.684 29.0629C23.097 28.9529 23.536 28.8959 23.99 28.8959C24.323 28.8959 24.601 28.9029 24.817 28.9199ZM22.708 32.6439C22.705 32.6429 23.183 33.0189 24.262 32.9529C25.02 32.9069 25.692 32.7629 25.692 32.7629V30.3529C25.692 30.3529 25.014 30.2419 24.253 30.2309C23.174 30.2179 22.714 30.6149 22.717 30.6139C22.399 30.8399 22.244 31.1749 22.244 31.6389C22.244 31.9359 22.297 32.1679 22.404 32.3299C22.471 32.4369 22.5 32.4769 22.708 32.6439ZM67.563 26.1889C67.513 26.3339 67.256 27.0599 67.163 27.3009C67.129 27.3929 67.073 27.4559 66.97 27.4449C66.97 27.4449 66.666 27.3749 66.388 27.3749C66.197 27.3749 65.924 27.3989 65.678 27.4749C65.4313 27.5508 65.2068 27.6857 65.024 27.8679C64.83 28.0549 64.673 28.3179 64.559 28.6479C64.443 28.9799 64.383 29.5079 64.383 30.0379V33.9859C64.3831 34.007 64.3791 34.028 64.3711 34.0475C64.3631 34.067 64.3514 34.0848 64.3365 34.0997C64.3216 34.1147 64.3039 34.1266 64.2845 34.1347C64.265 34.1428 64.2441 34.1469 64.223 34.1469H62.832C62.8107 34.1472 62.7896 34.1433 62.7699 34.1354C62.7501 34.1275 62.7321 34.1158 62.7169 34.1009C62.7016 34.0861 62.6895 34.0683 62.6811 34.0488C62.6727 34.0292 62.6683 34.0082 62.668 33.9869V26.0819C62.668 25.9929 62.733 25.9219 62.822 25.9219H64.179C64.269 25.9219 64.333 25.9929 64.333 26.0819V26.7279C64.536 26.4559 64.9 26.2159 65.229 26.0679C65.559 25.9179 65.928 25.8079 66.595 25.8479C66.942 25.8689 67.393 25.9639 67.484 25.9989C67.5018 26.0061 67.518 26.0167 67.5316 26.0301C67.5453 26.0436 67.5561 26.0596 67.5634 26.0773C67.5708 26.095 67.5745 26.114 67.5745 26.1332C67.5744 26.1524 67.5705 26.1713 67.563 26.1889ZM54.493 22.5259C54.53 22.5409 54.631 22.5899 54.591 22.7099L54.184 23.8229C54.15 23.9069 54.128 23.9569 53.955 23.9049C53.7262 23.833 53.4879 23.7959 53.248 23.7949C53.038 23.7949 52.848 23.8219 52.68 23.8779C52.5119 23.9318 52.3595 24.0258 52.236 24.1519C52.0717 24.3108 51.9446 24.5041 51.864 24.7179C51.669 25.2779 51.594 25.8749 51.584 25.9129H53.278C53.421 25.9129 53.466 25.9789 53.452 26.0839L53.254 27.1859C53.222 27.3459 53.077 27.3399 53.077 27.3399H51.331L50.138 34.0959C50.0354 34.7019 49.8795 35.2975 49.672 35.8759C49.485 36.3649 49.292 36.7219 48.982 37.0629C48.7174 37.3681 48.3809 37.6025 48.003 37.7449C47.636 37.8799 47.19 37.9489 46.703 37.9489C46.471 37.9489 46.221 37.9439 45.926 37.8739C45.7616 37.8364 45.5997 37.789 45.441 37.7319C45.376 37.7089 45.323 37.6259 45.361 37.5199C45.397 37.4149 45.711 36.5559 45.753 36.4429C45.807 36.3069 45.945 36.3589 45.945 36.3589C46.039 36.3989 46.105 36.4249 46.23 36.4499C46.357 36.4749 46.527 36.4969 46.656 36.4969C46.887 36.4969 47.097 36.4689 47.28 36.4069C47.5 36.3359 47.63 36.2069 47.764 36.0349C47.904 35.8539 48.018 35.6089 48.135 35.2799C48.252 34.9469 48.359 34.5069 48.451 33.9739L49.639 27.3409H48.469C48.329 27.3409 48.281 27.2749 48.297 27.1689L48.493 26.0669C48.524 25.9069 48.673 25.9129 48.673 25.9129H49.874L49.939 25.5549C50.119 24.4909 50.476 23.6819 51.004 23.1509C51.535 22.6159 52.29 22.3459 53.248 22.3459C53.522 22.3459 53.764 22.3639 53.969 22.4009C54.17 22.4389 54.323 22.4739 54.493 22.5259ZM30.817 33.9859C30.817 34.0759 30.755 34.1469 30.665 34.1469H29.26C29.17 34.1469 29.109 34.0749 29.109 33.9869V22.6739C29.109 22.5869 29.171 22.5149 29.259 22.5149H30.665C30.755 22.5149 30.817 22.5869 30.817 22.6749V33.9859Z" fill="white"/>
</svg>
